<?xml version="1.0" encoding="UTF-8"?>
<svg version="1.1" xmlns="http://www.w3.org/2000/svg" width="2136" height="852">
<path d="M0 0 C25.08 0 50.16 0 76 0 C86.66352519 23.69672263 86.66352519 23.69672263 89.5625 30.375 C89.96412354 31.29901611 90.36574707 32.22303223 90.77954102 33.17504883 C95.08045253 43.11519798 99.25818759 53.10704589 103.44711304 63.09472656 C109.16729025 76.72712407 114.99824687 90.30943582 120.875 103.875 C126.11896254 115.98097514 131.33811473 128.09108346 136.37451172 140.28515625 C139.84736199 148.67824926 143.41722809 157.02840231 147 165.375 C147.4701503 166.47036575 147.4701503 166.47036575 147.94979858 167.58786011 C149.59841009 171.42804591 151.24796707 175.26782481 152.89794922 179.10742188 C156.62373983 187.77811414 160.34366148 196.45132414 164.0625 205.125 C164.44279358 206.011875 164.82308716 206.89875 165.21490479 207.8125 C170.29273065 219.65635416 175.34863455 231.50921761 180.375 243.375 C188.86984667 263.42763497 197.44918478 283.44291956 206.11886597 303.42062378 C215.0519006 324.00921537 223.90446417 344.63296913 232.625 365.3125 C236.53626252 374.58302126 240.49989707 383.83004566 244.5 393.0625 C245.22823975 394.74436401 245.22823975 394.74436401 245.97119141 396.46020508 C248.44827058 402.16669444 250.939042 407.86669176 253.45336914 413.55688477 C260.24080758 428.92289444 266.87415068 444.34958714 273.4375 459.8125 C275.4551012 464.56016287 277.47363987 469.30742695 279.4921875 474.0546875 C279.9763765 475.19383102 280.46056549 476.33297455 280.95942688 477.50663757 C284.1506558 485.01199687 287.35855704 492.50994543 290.58325195 500.00097656 C303 528.84701477 303 528.84701477 303 533 C293.19504136 533.49135416 283.39310161 533.86198359 273.57824421 534.08805561 C269.01748477 534.19670421 264.46526355 534.34330512 259.90942383 534.58422852 C226.83362136 536.28786404 226.83362136 536.28786404 216.56426907 527.13023281 C212.5938238 523.275068 209.22919855 518.9662071 205.96498108 514.51184082 C203.06416593 510.80372068 199.62245186 507.96974876 196 505 C194.76609979 503.86610128 193.53970949 502.72392347 192.32421875 501.5703125 C191.72988037 501.00747559 191.13554199 500.44463867 190.52319336 499.86474609 C189.91741455 499.29062988 189.31163574 498.71651367 188.6875 498.125 C183.54975391 493.29344346 178.32013681 488.67939614 172.80859375 484.2734375 C169.48133715 481.58016443 166.24043894 478.79655516 163 476 C157.07723139 470.90221414 151.09442515 465.89246908 145 461 C144.24396484 460.39236816 144.24396484 460.39236816 143.47265625 459.77246094 C133.97476275 452.16137391 124.22067986 444.91545529 114.38623047 437.74658203 C112.12487147 436.09139866 109.87562552 434.42106908 107.62890625 432.74609375 C89.50369692 419.32077422 70.06910288 407.87191679 50.60205078 396.52001953 C48.05168166 395.03019047 45.50779409 393.52979236 42.96484375 392.02734375 C33.96100566 386.72863683 24.88829617 381.73311432 15.47705078 377.19726562 C12.48805292 375.75255387 9.50819457 374.28957051 6.52734375 372.828125 C-9.96300416 364.76902879 -9.96300416 364.76902879 -26.92626953 357.78808594 C-29.49094606 356.81342431 -32.03987801 355.8015801 -34.58984375 354.7890625 C-49.86778746 347.57641399 -49.86778746 347.57641399 -66 344 C-72.71229742 359.45259023 -79.25416584 374.96620414 -85.625 390.5625 C-99.23944103 423.88113947 -113.24933649 457.03338782 -127.34130859 490.15234375 C-134.70741574 507.47364939 -141.94530061 524.84761135 -149.17993164 542.22412109 C-154.79737974 555.71613648 -160.42096543 569.20553607 -166.0625 582.6875 C-166.42463593 583.55310547 -166.78677185 584.41871094 -167.15988159 585.31054688 C-171.44218386 595.54359325 -175.74318331 605.76854664 -180.06640625 615.984375 C-180.49025101 616.98632401 -180.91409576 617.98827301 -181.3507843 619.02058411 C-183.38346787 623.82506251 -185.41827082 628.6286207 -187.45727539 633.43041992 C-191.59769978 643.19913325 -195.64526472 652.99545823 -199.51956177 662.87327576 C-199.83134369 663.6634761 -200.14312561 664.45367645 -200.46435547 665.26782227 C-200.73778778 665.96641861 -201.01122009 666.66501495 -201.29293823 667.38478088 C-202 669 -202 669 -203 670 C-205.52541002 670.09504251 -208.02337126 670.12557158 -210.54907227 670.11352539 C-211.73435013 670.11374443 -211.73435013 670.11374443 -212.943573 670.1139679 C-215.56787822 670.11326857 -218.19211336 670.10547527 -220.81640625 670.09765625 C-222.63101665 670.09579214 -224.44562756 670.0943682 -226.26023865 670.09336853 C-231.0459023 670.08954279 -235.8315358 670.07971204 -240.6171875 670.06866455 C-245.49674064 670.05845163 -250.37629864 670.05387117 -255.25585938 670.04882812 C-264.83725286 670.03808982 -274.41862393 670.02101273 -284 670 C-273.44066844 643.43126533 -273.44066844 643.43126533 -268.4375 631.9375 C-267.41728118 629.57451549 -266.3977953 627.21121444 -265.37890625 624.84765625 C-264.97895447 623.92104187 -264.97895447 623.92104187 -264.57092285 622.97570801 C-261.3326552 615.46684066 -258.14348059 607.93713036 -254.95004272 600.40911865 C-249.07658259 586.56404577 -243.17565885 572.73117553 -237.24127197 558.91210938 C-230.44584595 543.08670694 -223.69830503 527.24176753 -217 511.375 C-216.61861877 510.47198151 -216.23723755 509.56896301 -215.84429932 508.63858032 C-212.00406902 499.54300747 -208.17990854 490.44107614 -204.39053345 481.32418823 C-198.54703549 467.26582416 -192.59930287 453.25320534 -186.625 439.25 C-185.59808813 436.84100712 -184.5712332 434.43198996 -183.54443359 432.02294922 C-178.13879902 419.34329285 -172.72156265 406.66872245 -167.28466797 394.00244141 C-157.43427152 371.03948118 -147.68494088 348.0331831 -138 325 C-132.60812965 312.17690303 -127.19325557 299.36387351 -121.75 286.5625 C-121.4031012 285.74656372 -121.05620239 284.93062744 -120.6987915 284.08996582 C-116.89820742 275.15182723 -113.09263957 266.21582141 -109.28242493 257.28178406 C-107.1457588 252.27155484 -105.01008193 247.2609045 -102.875 242.25 C-102.45115021 241.25529694 -102.02730042 240.26059387 -101.59060669 239.23574829 C-95.75351367 225.53148117 -89.98044451 211.80245062 -84.27227783 198.04403687 C-79.53806254 186.63726615 -74.71239185 175.27270406 -69.83166504 163.92791748 C-64.31346802 151.09936636 -58.86324571 138.24291239 -53.4375 125.375 C-53.03283508 124.4152829 -52.62817017 123.4555658 -52.21124268 122.46676636 C-51.80847107 121.51150055 -51.40569946 120.55623474 -50.99072266 119.57202148 C-50.18783376 117.66780251 -49.38493671 115.76358698 -48.58203125 113.859375 C-48.19007568 112.92972427 -47.79812012 112.00007355 -47.39428711 111.04225159 C-43.81851237 102.56388029 -40.22368885 94.0936641 -36.625 85.625 C-32.22188443 75.26167124 -27.84812742 64.88651606 -23.5 54.5 C-19.11974482 44.0398927 -14.72709126 33.5851056 -10.30737305 23.14160156 C-9.69259216 21.68827821 -9.07848162 20.23467108 -8.46508789 18.78076172 C-7.61146411 16.75796772 -6.75528935 14.73627208 -5.8984375 12.71484375 C-5.41036621 11.56105225 -4.92229492 10.40726074 -4.41943359 9.21850586 C-3.04434756 6.10055623 -1.5239732 3.04794639 0 0 Z M36 101 C34.43409893 104.72806909 32.86882516 108.45640103 31.30410767 112.18496704 C30.72277187 113.57022778 30.14137052 114.95546101 29.55990601 116.34066772 C26.16881162 124.42040014 22.78639013 132.50356866 19.4296875 140.59765625 C12.29806775 157.7870971 5.05850078 174.92557644 -2.29016113 192.0234375 C-7.56103592 204.28794168 -12.7951256 216.56542743 -17.92675781 228.88891602 C-20.82277263 235.83975661 -23.75375904 242.7742599 -26.72285461 249.69425964 C-28.50319399 253.84519862 -30.27646409 257.9991437 -32.04959106 262.15316772 C-32.92968258 264.20951104 -33.81318213 266.26439925 -34.70016479 268.31777954 C-35.94159425 271.19260254 -37.17117507 274.07223153 -38.3984375 276.953125 C-38.96763161 278.25865578 -38.96763161 278.25865578 -39.54832458 279.59056091 C-40.05686729 280.79338463 -40.05686729 280.79338463 -40.57568359 282.02050781 C-40.8762265 282.71976379 -41.17676941 283.41901978 -41.48641968 284.13946533 C-42.2419666 286.20286727 -42.2419666 286.20286727 -41 289 C-38.99062529 290.14277527 -38.99062529 290.14277527 -36.453125 291.0234375 C-35.47835205 291.39750732 -34.5035791 291.77157715 -33.49926758 292.15698242 C-32.42700928 292.55892822 -31.35475098 292.96087402 -30.25 293.375 C2.58126316 306.12047486 34.25941561 321.41912327 64.47119141 339.50732422 C67.34209307 341.20192672 70.25053597 342.8134491 73.17724609 344.40893555 C83.66244328 350.12949184 93.56377105 356.75243648 103.51123047 363.35107422 C105.50345352 364.67101482 107.50044957 365.98238879 109.50390625 367.28515625 C127.3631141 378.98430353 144.53136209 391.95417081 161.22167969 405.26025391 C165.05858375 408.30886567 168.9942783 411.17629454 173 414 C171.09897127 408.00070089 168.91847031 402.22317329 166.375 396.46875 C165.86007492 395.29103279 165.86007492 395.29103279 165.33474731 394.08952332 C164.22685006 391.55804872 163.11346311 389.02903071 162 386.5 C161.22734858 384.73688978 160.45505318 382.97362351 159.68310547 381.21020508 C155.94906892 372.68601554 152.19458094 364.1708752 148.43603516 355.6574707 C148.00339355 354.67738037 147.57075195 353.69729004 147.125 352.6875 C146.69364746 351.71063232 146.26229492 350.73376465 145.81787109 349.72729492 C142.21494089 341.54310564 138.72976942 333.31132737 135.25976562 325.07006836 C130.42334906 313.59722195 125.46559902 302.17766065 120.50239563 290.75930786 C118.54396729 286.25368352 116.58916769 281.74649975 114.63671875 277.23828125 C114.35727417 276.59307526 114.07782959 275.94786926 113.78991699 275.28311157 C112.96407722 273.37625582 112.13828072 271.46938133 111.3125 269.5625 C105.88775852 257.0361152 100.44441393 244.51784396 95 232 C94.17797688 230.10994537 93.35595537 228.21989005 92.53393555 226.32983398 C92.13260406 225.40706161 91.73127258 224.48428925 91.31777954 223.53355408 C80.70735814 199.13706357 70.1038748 174.73767017 59.54309082 150.31964111 C52.4209185 133.85358219 45.24928982 117.41057707 38 101 C37.34 101 36.68 101 36 101 Z " fill="#B79959" transform="translate(327,52)"/>
<path d="M0 0 C28.71 0 57.42 0 87 0 C95.03837025 17.22507911 95.03837025 17.22507911 97.98828125 23.9921875 C98.32868942 24.76889801 98.6690976 25.54560852 99.01982117 26.34585571 C100.11902129 28.85485592 101.21575843 31.36492428 102.3125 33.875 C103.10072118 35.67521353 103.88913699 37.47534186 104.67773438 39.27539062 C106.31015517 43.00195189 107.94175217 46.72887214 109.57275391 50.45605469 C113.00468789 58.29700276 116.44686876 66.13344866 119.88882446 73.97000122 C121.74658766 78.19988071 123.6037749 82.43001304 125.4609375 86.66015625 C125.83017838 87.50116379 126.19941925 88.34217133 126.57984924 89.20866394 C128.93093759 94.56395435 131.28110016 99.9196502 133.63067627 105.27560425 C135.24152341 108.94750305 136.8526846 112.61926401 138.46386719 116.29101562 C139.2208587 118.01637055 139.97770184 119.74179059 140.734375 121.46728516 C145.78893233 132.99341565 150.87841449 144.5034923 156 156 C167.99451825 129.0737232 179.92746871 102.12173572 191.75585938 75.12207031 C195.62587197 66.28838279 199.49954488 57.45630104 203.375 48.625 C203.75044952 47.76941498 204.12589905 46.91382996 204.51272583 46.03231812 C209.34063104 35.03257118 214.18440303 24.04008691 219.0625 13.0625 C219.55733887 11.94891113 220.05217773 10.83532227 220.56201172 9.68798828 C223.8638738 2.27225239 223.8638738 2.27225239 225 0 C252.39 0 279.78 0 308 0 C306.26342078 3.47315844 305.0385627 5.17409853 302.4375 7.875 C288.02103213 23.86417346 281.68127785 41.88179393 281.7253418 63.30224609 C281.72023087 64.5980661 281.71511993 65.89388611 281.70985413 67.22897339 C281.69655579 70.75856632 281.69587593 74.28805155 281.69841743 77.81766462 C281.69949497 80.78377168 281.69458311 83.74985765 281.689812 86.71596014 C281.67874504 93.7310666 281.67826131 100.74611952 281.68432617 107.76123047 C281.69034228 114.94451689 281.67810889 122.12760626 281.6567561 129.31085908 C281.6389944 135.51940239 281.63316203 141.72788386 281.63639385 147.93645155 C281.63818636 151.62582421 281.63577978 155.31505683 281.62167931 159.00440598 C281.54749141 180.25365438 282.28022423 200.22697437 289.5625 220.375 C289.96146484 221.52226563 290.36042969 222.66953125 290.77148438 223.8515625 C291.50450533 225.9563973 292.24439818 228.0588653 292.99438477 230.15771484 C294.03272498 233.09249434 295.01556711 236.04670134 296 239 C266.3 239 236.6 239 206 239 C206.71571502 235.4214249 207.39701644 232.70771322 208.70703125 229.40234375 C212.26250045 220.19850567 215.52196715 211.13600613 217.4375 201.4375 C217.58872314 200.67880615 217.73994629 199.9201123 217.89575195 199.13842773 C219.89124236 188.17916137 220.14883005 177.06834812 220.11352539 165.95776367 C220.11374443 164.11149132 220.11374443 164.11149132 220.1139679 162.22792053 C220.11339636 158.89819284 220.10842999 155.56852949 220.10139394 152.23881316 C220.0950828 148.74216262 220.09455053 145.24551095 220.09336853 141.74885559 C220.09027786 135.14774416 220.08209543 128.54664956 220.07201904 121.94554549 C220.06078704 114.42181032 220.0553297 106.89807428 220.05032361 99.37433279 C220.03991057 83.91621215 220.02235561 68.45810826 220 53 C219.43650848 54.28959373 219.43650848 54.28959373 218.8616333 55.60523987 C211.88734434 71.56374786 204.90698085 87.5192115 197.85449219 103.44335938 C191.20891942 118.45024961 184.59148144 133.46928052 178 148.5 C172.07047247 162.01889684 166.12753711 175.53179157 160.16381836 189.03564453 C159.36507919 190.84429659 158.56656517 192.6530481 157.76831055 194.46191406 C152.23454513 206.99988954 146.63862188 219.50883425 141 232 C135.72 232 130.44 232 125 232 C120.21116442 222.6942501 115.94408632 213.22781913 111.77099609 203.63427734 C109.78357019 199.06582284 107.78557771 194.50198772 105.7890625 189.9375 C105.38447815 189.01179199 104.9798938 188.08608398 104.56304932 187.13232422 C100.7461847 178.4047737 96.87847197 169.7003033 93 161 C86.97839259 147.48387806 81.01224225 133.94410408 75.07174683 120.39215088 C68.11429012 104.52073197 61.11732738 88.66698294 54.10424805 72.82006836 C53.5243663 71.5092202 53.5243663 71.5092202 52.93276978 70.17189026 C52.21461109 68.5485485 51.49611254 66.92535703 50.77719116 65.30235291 C50.45441193 64.57270828 50.13163269 63.84306366 49.79907227 63.09130859 C49.52249283 62.46662689 49.24591339 61.84194519 48.96095276 61.19833374 C47.62379708 58.13937541 46.31279648 55.06949098 45 52 C44.9766487 65.03230182 44.95897033 78.06459853 44.94818783 91.09691715 C44.94300821 97.15080069 44.93600201 103.20466973 44.92456055 109.25854492 C44.91355419 115.12005693 44.9076863 120.98155515 44.90512276 126.84307671 C44.90330002 129.05972955 44.89974234 131.2763818 44.89426994 133.49302864 C44.86738769 144.85201204 44.96208797 156.19010611 45.42797852 167.54077148 C45.46473914 168.47428216 45.50149977 169.40779284 45.53937435 170.36959171 C46.65735817 194.65254631 56.76486026 214.46918645 72.41699219 232.64550781 C76 236.80845355 76 236.80845355 76 239 C51.58 239 27.16 239 2 239 C3.57472745 235.06318138 4.62020836 232.96019894 7.0625 229.75 C17.80783103 214.60783206 24.48504007 198.60363457 26.11010742 180.07739258 C26.19397548 179.12902684 26.27784353 178.18066111 26.36425304 177.20355701 C27.31435386 165.46215484 27.3087631 153.72170326 27.30078125 141.94921875 C27.30468247 139.51031931 27.30901998 137.07142053 27.31376648 134.63252258 C27.32116078 129.56252826 27.32098544 124.49260369 27.31567383 119.42260742 C27.30986009 112.97006939 27.32688966 106.51781663 27.3500185 100.06532574 C27.3648355 95.04375073 27.36561722 90.02224341 27.36250877 85.00065041 C27.36301705 82.62273401 27.3681604 80.24481331 27.37832069 77.86691856 C27.4885215 48.50311642 22.78487627 25.88595204 1.87109375 4.14453125 C0 2 0 2 0 0 Z " fill="#E8E6E0" transform="translate(1751,346)"/>
<path d="M0 0 C16.08292329 -0.07049129 32.16579547 -0.1231826 48.24883652 -0.15543652 C55.71867833 -0.17081937 63.18842344 -0.19174172 70.65820312 -0.22631836 C77.17882875 -0.25648676 83.69938426 -0.2756371 90.22007775 -0.28226548 C93.66371119 -0.28613201 97.10714424 -0.29503252 100.55071259 -0.31719017 C129.42639837 -0.4821826 161.68552454 0.45536062 183.84765625 21.68359375 C196.6843929 35.49881123 197.72880535 51.02762038 197.17480469 69.02441406 C196.20509589 85.53113305 188.66089297 99.52194333 177 111 C176.36320312 111.63550781 175.72640625 112.27101563 175.0703125 112.92578125 C171.27435041 116.4776047 167.24634904 119.12003251 162.73828125 121.70703125 C161.12433472 122.63672729 161.12433472 122.63672729 159.4777832 123.58520508 C158.66011475 124.0520874 157.84244629 124.51896973 157 125 C162.03052617 135.17767845 167.07230665 145.34969709 172.12793541 155.51493168 C174.4759448 160.23687636 176.820254 164.96057848 179.15576172 169.6887207 C181.41614694 174.26442145 183.68670087 178.83494958 185.9639473 183.40228081 C186.82450732 185.13253228 187.6815881 186.86451937 188.53486252 188.59837532 C198.35212063 208.53398367 208.26113938 224.50742625 227 237 C227 237.66 227 238.32 227 239 C200.27 239 173.54 239 146 239 C125.42350989 196.88033904 125.42350989 196.88033904 119.03979492 183.45483398 C116.34859344 177.80124926 113.62785695 172.1626516 110.890625 166.53125 C110.52906311 165.78713867 110.16750122 165.04302734 109.79498291 164.27636719 C107.99610714 160.57507031 106.19520961 156.87477434 104.39160156 153.17578125 C103.72976527 151.81512967 103.06797915 150.45445369 102.40625 149.09375 C102.10672424 148.48116333 101.80719849 147.86857666 101.49859619 147.23742676 C99.53594986 143.19675772 97.77387553 139.1390429 96 135 C84.615 134.505 84.615 134.505 73 134 C73.06971515 141.60935045 73.15806875 149.21819443 73.26245117 156.82714844 C73.29535948 159.40651751 73.32349292 161.98595272 73.34643555 164.56542969 C73.52994873 184.66598025 74.10712805 203.90184366 81.125 222.9375 C81.83831373 224.94577216 82.54934222 226.95485783 83.2578125 228.96484375 C83.5686377 229.8168335 83.87946289 230.66882324 84.19970703 231.54663086 C85 234 85 234 86 239 C57.62 239 29.24 239 0 239 C0.66408984 235.01546098 1.14827593 232.20466708 2.5234375 228.6015625 C2.8210498 227.80024902 3.11866211 226.99893555 3.42529297 226.17333984 C3.73869629 225.3323877 4.05209961 224.49143555 4.375 223.625 C10.26900248 207.30798246 12.15184964 191.1324312 12.14526367 173.83374023 C12.14862228 172.55260849 12.1519809 171.27147675 12.15544128 169.95152283 C12.16420889 166.46347663 12.1666164 162.97545502 12.16725707 159.48739886 C12.16797204 157.29852788 12.1701148 155.10966299 12.17275429 152.92079353 C12.18198587 145.25668065 12.18609218 137.59258506 12.18530273 129.9284668 C12.18470349 122.83037126 12.19523075 115.7323521 12.2110464 108.63427585 C12.2242097 102.50391936 12.22948293 96.37358754 12.22884732 90.24321705 C12.22859478 86.5981213 12.2313088 82.95309344 12.24202538 79.30801201 C12.45864904 52.54760461 12.45864904 52.54760461 7.6875 26.3125 C7.47456299 25.53068359 7.26162598 24.74886719 7.04223633 23.94335938 C5.31184527 17.73851767 3.2224665 11.70046643 0.91796875 5.6875 C0 3 0 3 0 0 Z M73 15 C72.90468837 16.3534059 72.8781128 17.71173984 72.87974548 19.0684967 C72.87837082 19.94494339 72.87699615 20.82139008 72.87557983 21.72439575 C72.87917511 22.69327728 72.88277039 23.66215881 72.88647461 24.66040039 C72.88632858 25.67491776 72.88618256 26.68943512 72.8860321 27.73469543 C72.88673171 31.10570373 72.89452632 34.47665754 72.90234375 37.84765625 C72.90420776 40.17793243 72.90563174 42.508209 72.90663147 44.83848572 C72.91045798 50.98537265 72.9202894 57.13223613 72.93133545 63.27911377 C72.94154671 69.54609866 72.94612848 75.81308732 72.95117188 82.08007812 C72.96191155 94.38672908 72.97898956 106.69336259 73 119 C77.24975959 119.11789773 81.49908905 119.18781321 85.75 119.25 C86.93722656 119.28351563 88.12445312 119.31703125 89.34765625 119.3515625 C102.44330329 119.49468433 112.39029368 116.2435489 121.8671875 107.22265625 C134.39624366 94.0752132 136.47639483 74.78499846 136.21484375 57.3984375 C135.8641536 47.42663932 133.6954116 38.26091232 128 30 C127.278125 28.948125 126.55625 27.89625 125.8125 26.8125 C115.19781834 16.19781834 101.3129789 13.88356533 86.88085938 13.86328125 C85.48577148 13.86908203 85.48577148 13.86908203 84.0625 13.875 C83.10537109 13.87113281 82.14824219 13.86726563 81.16210938 13.86328125 C80.25396484 13.86457031 79.34582031 13.86585938 78.41015625 13.8671875 C77.17471069 13.86887939 77.17471069 13.86887939 75.91430664 13.87060547 C73.99095234 13.78977766 73.99095234 13.78977766 73 15 Z " fill="#E8E6E0" transform="translate(1392,346)"/>
<path d="M0 0 C16.08292329 -0.07049129 32.16579547 -0.1231826 48.24883652 -0.15543652 C55.71867833 -0.17081937 63.18842344 -0.19174172 70.65820312 -0.22631836 C77.17882875 -0.25648676 83.69938426 -0.2756371 90.22007775 -0.28226548 C93.66371119 -0.28613201 97.10714424 -0.29503252 100.55071259 -0.31719017 C129.42639837 -0.4821826 161.68552454 0.45536062 183.84765625 21.68359375 C196.6843929 35.49881123 197.72880535 51.02762038 197.17480469 69.02441406 C196.20509589 85.53113305 188.66089297 99.52194333 177 111 C176.36320313 111.63550781 175.72640625 112.27101563 175.0703125 112.92578125 C171.27435041 116.4776047 167.24634904 119.12003251 162.73828125 121.70703125 C161.12433472 122.63672729 161.12433472 122.63672729 159.4777832 123.58520508 C158.66011475 124.0520874 157.84244629 124.51896973 157 125 C162.03052617 135.17767845 167.07230665 145.34969709 172.12793541 155.51493168 C174.4759448 160.23687636 176.820254 164.96057848 179.15576172 169.6887207 C181.41614694 174.26442145 183.68670087 178.83494958 185.9639473 183.40228081 C186.82450732 185.13253228 187.6815881 186.86451937 188.53486252 188.59837532 C198.35212063 208.53398367 208.26113938 224.50742625 227 237 C227 237.66 227 238.32 227 239 C200.27 239 173.54 239 146 239 C125.42350989 196.88033904 125.42350989 196.88033904 119.03979492 183.45483398 C116.34859344 177.80124926 113.62785695 172.1626516 110.890625 166.53125 C110.52906311 165.78713867 110.16750122 165.04302734 109.79498291 164.27636719 C107.99610714 160.57507031 106.19520961 156.87477434 104.39160156 153.17578125 C103.72976527 151.81512967 103.06797915 150.45445369 102.40625 149.09375 C102.10672424 148.48116333 101.80719849 147.86857666 101.49859619 147.23742676 C99.53594986 143.19675772 97.77387553 139.1390429 96 135 C84.615 134.505 84.615 134.505 73 134 C73.06971515 141.60935045 73.15806875 149.21819443 73.26245117 156.82714844 C73.29535948 159.40651751 73.32349292 161.98595272 73.34643555 164.56542969 C73.52994873 184.66598025 74.10712805 203.90184366 81.125 222.9375 C81.83831373 224.94577216 82.54934222 226.95485783 83.2578125 228.96484375 C83.5686377 229.8168335 83.87946289 230.66882324 84.19970703 231.54663086 C85 234 85 234 86 239 C57.62 239 29.24 239 0 239 C0.66408984 235.01546098 1.14827593 232.20466708 2.5234375 228.6015625 C2.8210498 227.80024902 3.11866211 226.99893555 3.42529297 226.17333984 C3.73869629 225.3323877 4.05209961 224.49143555 4.375 223.625 C10.26900248 207.30798246 12.15184964 191.1324312 12.14526367 173.83374023 C12.14862228 172.55260849 12.1519809 171.27147675 12.15544128 169.95152283 C12.16420889 166.46347663 12.1666164 162.97545502 12.16725707 159.48739886 C12.16797204 157.29852788 12.1701148 155.10966299 12.17275429 152.92079353 C12.18198587 145.25668065 12.18609218 137.59258506 12.18530273 129.9284668 C12.18470349 122.83037126 12.19523075 115.7323521 12.2110464 108.63427585 C12.2242097 102.50391936 12.22948293 96.37358754 12.22884732 90.24321705 C12.22859478 86.5981213 12.2313088 82.95309344 12.24202538 79.30801201 C12.45864904 52.54760461 12.45864904 52.54760461 7.6875 26.3125 C7.47456299 25.53068359 7.26162598 24.74886719 7.04223633 23.94335938 C5.31184527 17.73851767 3.2224665 11.70046643 0.91796875 5.6875 C0 3 0 3 0 0 Z M73 15 C72.90468837 16.3534059 72.8781128 17.71173984 72.87974548 19.0684967 C72.87837082 19.94494339 72.87699615 20.82139008 72.87557983 21.72439575 C72.87917511 22.69327728 72.88277039 23.66215881 72.88647461 24.66040039 C72.88632858 25.67491776 72.88618256 26.68943512 72.8860321 27.73469543 C72.88673171 31.10570373 72.89452632 34.47665754 72.90234375 37.84765625 C72.90420776 40.17793243 72.90563174 42.508209 72.90663147 44.83848572 C72.91045798 50.98537265 72.9202894 57.13223613 72.93133545 63.27911377 C72.94154671 69.54609866 72.94612848 75.81308732 72.95117188 82.08007812 C72.96191155 94.38672908 72.97898956 106.69336259 73 119 C77.24975959 119.11789773 81.49908905 119.18781321 85.75 119.25 C86.93722656 119.28351563 88.12445312 119.31703125 89.34765625 119.3515625 C102.44330329 119.49468433 112.39029368 116.2435489 121.8671875 107.22265625 C134.39624366 94.0752132 136.47639483 74.78499846 136.21484375 57.3984375 C135.8641536 47.42663932 133.6954116 38.26091232 128 30 C127.278125 28.948125 126.55625 27.89625 125.8125 26.8125 C115.19781834 16.19781834 101.3129789 13.88356533 86.88085938 13.86328125 C85.48577148 13.86908203 85.48577148 13.86908203 84.0625 13.875 C83.10537109 13.87113281 82.14824219 13.86726563 81.16210938 13.86328125 C80.25396484 13.86457031 79.34582031 13.86585938 78.41015625 13.8671875 C77.17471069 13.86887939 77.17471069 13.86887939 75.91430664 13.87060547 C73.99095234 13.78977766 73.99095234 13.78977766 73 15 Z " fill="#E8E6E0" transform="translate(662,346)"/>
<path d="M0 0 C16.89976742 -0.0704147 33.79948837 -0.12314584 50.69936943 -0.15543652 C58.54816498 -0.17083527 66.39686883 -0.19178912 74.24560547 -0.22631836 C81.09509002 -0.25643691 87.94450807 -0.27562564 94.79405701 -0.28226548 C98.41312093 -0.28614019 102.03199481 -0.29509572 105.65099716 -0.31719017 C132.00895146 -0.47165892 156.81910846 0.72092124 179.25 16.25 C190.00766788 27.00766788 194.8479957 39.7040999 195.3125 54.75 C194.96504668 69.69049293 190.71320201 85.09946353 180.125 96.13671875 C171.80709862 103.43017272 159.37045677 113 148 113 C148 113.66 148 114.32 148 115 C149.03125 115.061875 150.0625 115.12375 151.125 115.1875 C166.55621452 117.17423485 182.58966945 125.50831469 193 137 C204.43897259 152.02465054 207.90687228 169.03345623 205.53515625 187.6484375 C202.58846712 203.44548101 194.59436047 215.85978832 181.6015625 225.34765625 C163.64976255 236.74947514 142.64076746 240.17455928 121.69921875 240.11352539 C119.72236839 240.11374443 119.72236839 240.11374443 117.70558167 240.1139679 C114.11318092 240.11425337 110.52081395 240.10839709 106.92842102 240.10139394 C103.16614964 240.09511875 99.40387737 240.09455332 95.64160156 240.09336853 C88.52679273 240.09026746 81.41199938 240.08207064 74.29719734 240.07201904 C66.19317783 240.06081981 58.08915755 240.05533787 49.98513222 240.05032361 C33.32341244 240.03988694 16.6617082 240.02231131 0 240 C0.72584251 235.21104022 2.02791589 230.98560594 3.8125 226.5 C13.56463216 201.12455408 14.15897239 175.85953727 14.16796875 149.03125 C14.17119338 146.7388914 14.17455829 144.446533 14.17805481 142.1541748 C14.18400516 137.37035649 14.18589901 132.58655612 14.18530273 127.80273438 C14.18520148 121.74661727 14.19883501 115.69061834 14.21607494 109.63452911 C14.22732942 104.90343727 14.22921785 100.17237276 14.22869301 95.44126892 C14.22985372 93.21231175 14.23416443 90.9833534 14.24202538 88.75440979 C14.27973153 76.95776674 14.01576175 65.25452921 13.09106445 53.49023438 C12.97077141 51.95798595 12.97077141 51.95798595 12.84804821 50.39478302 C11.69006764 36.98678383 8.26987086 24.91857276 3.37426758 12.41650391 C2.93570435 11.29187744 2.93570435 11.29187744 2.48828125 10.14453125 C2.22571533 9.48815674 1.96314941 8.83178223 1.69262695 8.15551758 C0.83027883 5.4718124 0.44319092 2.78045998 0 0 Z M83.5625 14.203125 C78.41205361 14.11969178 78.41205361 14.11969178 74 16 C73.90477582 18.86091818 73.87446674 21.69763621 73.88647461 24.55883789 C73.88632858 25.45631241 73.88618256 26.35378693 73.8860321 27.27845764 C73.88673158 30.25988134 73.89452559 33.2412434 73.90234375 36.22265625 C73.90420781 38.28388942 73.90563177 40.34512304 73.90663147 42.40635681 C73.91045763 47.8430401 73.92028874 53.27969686 73.93133545 58.71636963 C73.94154747 64.25947714 73.94612864 69.80258892 73.95117188 75.34570312 C73.96191092 86.23048043 73.97898851 97.11523802 74 108 C77.33983484 108.02017882 80.6796537 108.03225465 84.01953125 108.04296875 C84.95671997 108.04872925 85.89390869 108.05448975 86.85949707 108.0604248 C101.4606313 108.09548538 114.14575033 106.38444475 125.1875 95.98828125 C135.93350814 84.2000956 137.82469503 68.93838975 137.32421875 53.625 C137.01642451 48.12248343 136.07143627 43.12080382 134 38 C133.70996094 37.278125 133.41992188 36.55625 133.12109375 35.8125 C129.55102136 27.92547816 123.99927284 21.50951456 116 18 C105.00488885 14.36269836 95.13091273 13.51953697 83.5625 14.203125 Z M74 123 C74 156.66 74 190.32 74 225 C90.31725035 228.26345007 109.29980446 228.03956482 123.8125 219.3125 C134.07236433 211.78232435 140.00168017 201.95406671 142.60742188 189.57421875 C143.3586216 184.64844148 143.33882238 179.72342517 143.3125 174.75 C143.30686035 173.64188965 143.3012207 172.5337793 143.29541016 171.39208984 C143.08187295 157.0089845 140.32723775 144.51655999 130.25 133.625 C114.67150577 119.116784 94.45346762 123 74 123 Z " fill="#E8E6E0" transform="translate(1157,345)"/>
<path d="M0 0 C0.9200885 0.00465271 1.840177 0.00930542 2.78814697 0.01409912 C29.14117396 0.16993286 56.62145468 2.76197269 81.375 12.375 C82.31415642 20.24099382 83.24486448 28.10792208 84.16487217 35.97617626 C84.59235512 39.62988541 85.02271488 43.28320716 85.4597168 46.93579102 C85.88152073 50.46225172 86.29567916 53.98953477 86.7046032 57.51751137 C86.93813623 59.51499917 87.17953083 61.51156277 87.42103577 63.50810242 C87.63136696 65.33943474 87.63136696 65.33943474 87.84594727 67.20776367 C87.97252213 68.28031906 88.09909698 69.35287445 88.22950745 70.45793152 C88.37191228 73.31309247 88.07103628 75.61398634 87.375 78.375 C84.2109375 79.265625 84.2109375 79.265625 80.375 79.375 C78.12234651 77.28098408 76.69434906 75.61413899 75 73.125 C74.04400452 71.81695071 73.08696123 70.50966661 72.12890625 69.203125 C71.66242676 68.55021484 71.19594727 67.89730469 70.71533203 67.22460938 C67.48873137 62.772018 63.89246215 58.5982687 60.375 54.375 C59.91480469 53.81780273 59.45460938 53.26060547 58.98046875 52.68652344 C45.04619072 35.85693038 28.78535162 20.26625947 6.375 16.375 C-13.89434882 14.96727149 -31.61824167 16.99804964 -47.75 30.375 C-71.38171812 52.80637688 -74.51897692 89.59388556 -75.43139648 120.17211914 C-76.25305335 155.14593278 -71.85288549 191.24150856 -47.83203125 218.40234375 C-43.67129054 222.45286616 -38.81279916 225.05877679 -33.6875 227.6875 C-33.03128662 228.02555664 -32.37507324 228.36361328 -31.69897461 228.71191406 C-18.84969958 234.97861422 -2.08438871 235.69556363 11.5625 231.6875 C13.51823495 230.9641805 15.45825268 230.19607856 17.375 229.375 C18.2515625 229.01277344 19.128125 228.65054688 20.03125 228.27734375 C49.49680834 214.86323926 66.1110635 179.94679888 81.375 153.375 C88.25 154.25 88.25 154.25 89.375 155.375 C89.3467013 157.73198935 89.24521192 160.04450621 89.08984375 162.39453125 C89.04278793 163.14176956 88.99573212 163.88900787 88.94725037 164.65888977 C88.29183412 174.40561519 87.28879629 184.12106927 86.27319336 193.83569336 C85.93414026 197.09479501 85.60652158 200.35492632 85.27929688 203.61523438 C85.0631893 205.70580054 84.84641702 207.79629812 84.62890625 209.88671875 C84.53299698 210.85236252 84.43708771 211.81800629 84.33827209 212.81291199 C83.04449466 224.92703057 83.04449466 224.92703057 79.5534668 227.95483398 C78.81781494 228.33969971 78.08216309 228.72456543 77.32421875 229.12109375 C76.49132324 229.56251709 75.65842773 230.00394043 74.80029297 230.45874023 C73.44508545 231.12885132 73.44508545 231.12885132 72.0625 231.8125 C70.65701904 232.52418335 70.65701904 232.52418335 69.22314453 233.25024414 C49.67719518 242.8631935 27.03717931 249.3844532 5.15234375 249.61328125 C4.37818115 249.62312042 3.60401855 249.63295959 2.80639648 249.64309692 C-13.98561808 249.81248637 -30.31594941 249.90098751 -46.625 245.375 C-47.50349609 245.13362305 -48.38199219 244.89224609 -49.28710938 244.64355469 C-80.42061851 235.78487904 -109.1701899 216.59999975 -125.81542969 188.35498047 C-142.20173659 158.72032289 -145.65447559 125.15956324 -136.85351562 92.54150391 C-130.95690152 72.15665979 -120.36348607 55.44794491 -105.625 40.375 C-104.94824219 39.64796875 -104.27148438 38.9209375 -103.57421875 38.171875 C-76.99220778 10.21398354 -37.39315796 -0.33852631 0 0 Z " fill="#E8E6E0" transform="translate(1032.625,340.625)"/>
<path d="M0 0 C29.7 0 59.4 0 90 0 C88.13066228 5.60801317 86.24150703 10.97553278 84.0625 16.4375 C79.32482074 28.9040703 76.94389795 41.30685545 75.90722656 54.59179688 C75.82187778 55.68066444 75.73652901 56.76953201 75.6485939 57.89139557 C74.81620836 69.29550288 74.70901638 80.66448534 74.734375 92.09375 C74.73302058 94.30741417 74.73107368 96.52107804 74.72857666 98.73474121 C74.72566183 103.32953784 74.7298036 107.92425565 74.73925781 112.51904297 C74.75064997 118.33056671 74.74407063 124.14190554 74.73211288 129.95342255 C74.72479455 134.51122362 74.72722726 139.06898275 74.73236847 143.62678528 C74.7336776 145.76642378 74.73215666 147.90606644 74.72740936 150.04570007 C74.70753475 161.51206254 75.0006334 172.89457112 75.88378906 184.33007812 C75.9601849 185.33888283 76.03658073 186.34768753 76.1152916 187.38706207 C77.55554284 204.36354292 82.55041246 219.73030589 89.3449707 235.27026367 C90 237 90 237 90 239 C60.3 239 30.6 239 0 239 C1.12043978 232.27736132 1.12043978 232.27736132 2.48828125 229.109375 C2.7807373 228.40852783 3.07319336 227.70768066 3.37451172 226.9855957 C3.68404785 226.24784912 3.99358398 225.51010254 4.3125 224.75 C14.21419262 200.29996791 14.15962446 174.51306919 14.1328125 148.53125 C14.13348814 146.19730621 14.13446033 143.86336249 14.13571167 141.52941895 C14.13717639 136.66495079 14.13507381 131.80050114 14.13037109 126.93603516 C14.12467459 120.74688493 14.1279602 114.5577781 14.13394356 108.36862946 C14.13758244 103.55722739 14.1363954 98.74583537 14.13381577 93.93443298 C14.13315567 91.65421035 14.13394224 89.37398677 14.13629532 87.09376526 C14.15956261 58.22103376 11.88259883 32.46286545 0.91796875 5.57421875 C0 3 0 3 0 0 Z " fill="#E8E6E0" transform="translate(1640,346)"/>
<path d="M0 0 C13.98726918 10.04505781 23.91612859 23.7815222 27.56640625 40.80859375 C29.85995616 57.68994756 26.8909983 73.52975142 17.1484375 87.69140625 C7.79565473 99.89473835 -5.39343186 110.09390191 -20.66796875 113.59765625 C-40.70261594 116.01684577 -58.66789372 113.27539279 -75.015625 100.67578125 C-88.95522575 88.54528169 -96.41945136 73.56732152 -98.28515625 55.19140625 C-98.86903146 38.10670999 -92.63762339 22.34161828 -81.50390625 9.53125 C-59.48797563 -12.72510419 -26.38096913 -17.20497987 0 0 Z M-58.875 8.0859375 C-71.18575113 24.05807581 -72.63949364 46.69203797 -70.25 66 C-68.10465608 79.33072325 -64.34342103 92.00082994 -53.6875 101 C-47.02917745 105.72197364 -39.15549771 108.11211332 -31 107 C-21.23400902 105.12192481 -14.05593111 100.48646329 -8.375 92.3046875 C2.66718719 73.79647602 3.44222789 50.2642781 -1.02734375 29.62109375 C-4.33088091 17.32238312 -9.63115792 6.95078727 -20.7421875 0.15234375 C-34.12458915 -6.67777474 -49.12784525 -2.75777216 -58.875 8.0859375 Z " fill="#B89A5A" transform="translate(1209,651)"/>
<path d="M0 0 C26.73 0 53.46 0 81 0 C82.60887394 4.02218486 83.53365173 7.20001357 84.2890625 11.39453125 C84.50820313 12.59658203 84.72734375 13.79863281 84.953125 15.03710938 C85.17484375 16.28298828 85.3965625 17.52886719 85.625 18.8125 C85.85445312 20.07771484 86.08390625 21.34292969 86.3203125 22.64648438 C86.88490528 25.763507 87.44462375 28.88132433 88 32 C85.65185547 32.62670898 85.65185547 32.62670898 83 33 C80.5703125 30.97265625 80.5703125 30.97265625 78.125 28.0625 C77.47374146 27.30622314 77.47374146 27.30622314 76.80932617 26.53466797 C75.52331724 25.03689893 74.26126422 23.51866508 73 22 C71.77637036 20.53701766 70.54796762 19.07799916 69.3125 17.625 C68.83425781 17.03976562 68.35601563 16.45453125 67.86328125 15.8515625 C60.79509658 8.82783183 55.33792082 8.13252912 45.5625 7.6875 C41.416875 7.460625 37.27125 7.23375 33 7 C32.67 23.17 32.34 39.34 32 56 C47.06529586 54.30716339 47.06529586 54.30716339 57.3125 45.375 C58.32763672 44.21097656 58.32763672 44.21097656 59.36328125 43.0234375 C61.04039476 41.09820862 61.04039476 41.09820862 62 39 C63.65 39 65.3 39 67 39 C67 52.53 67 66.06 67 80 C60.85129605 78.77025921 59.01201543 76.04631831 55.28125 71.48046875 C48.60143006 63.67462202 42.56107271 63.88008939 32 63 C32 79.17 32 95.34 32 112 C58.73785539 111.91274994 58.73785539 111.91274994 78.5 98.375 C83.30657717 92.81395129 87.68054402 86.94308128 92 81 C93.98 81.495 93.98 81.495 96 82 C94.75101802 94.48981984 91.72293575 106.74678914 89 119 C59.63 119 30.26 119 0 119 C3 109 3 109 3.93397522 105.98895264 C6.36542815 97.40636865 6.45597048 89.03796104 6.43359375 80.203125 C6.43816998 78.59950544 6.44347975 76.99588782 6.44947815 75.39227295 C6.45835715 72.04724108 6.45604781 68.70244858 6.44604492 65.35742188 C6.43458693 61.117153 6.45474445 56.87772094 6.48396206 52.6375618 C6.50250866 49.32907042 6.50199495 46.02077257 6.49632454 42.71224213 C6.49617343 41.15128154 6.50203881 39.59030598 6.51461601 38.02939606 C6.59057033 27.05728813 5.10646082 17.54614657 2 7 C1.34 4.69 0.68 2.38 0 0 Z " fill="#B89A5A" transform="translate(884,644)"/>
<path d="M0 0 C14.85 0 29.7 0 45 0 C44.67 1.32 44.34 2.64 44 4 C43.03202744 15.22848175 48.88724914 23.9507613 54.75 33.125 C55.35199219 34.08148437 55.95398437 35.03796875 56.57421875 36.0234375 C58.04226066 38.35366276 59.51754002 40.6789315 61 43 C72.82526059 27.43511307 72.82526059 27.43511307 76 9 C75.01 6.03 74.02 3.06 73 0 C84.88 0 96.76 0 109 0 C105.20335553 3.79664447 101.27146295 7.00242987 97.046875 10.29296875 C88.91893103 17.21355002 82.99049574 25.95075465 77.16894531 34.79443359 C75.85987586 36.77285743 74.52423804 38.73160409 73.1875 40.69140625 C72.34988348 41.95461744 71.5138836 43.21890244 70.6796875 44.484375 C70.07844559 45.35482452 70.07844559 45.35482452 69.46505737 46.24285889 C68.22070351 48.08571988 68.22070351 48.08571988 67 51 C67.46493962 53.66075121 67.46493962 53.66075121 69 56 C69.45076904 56.81895752 69.90153809 57.63791504 70.3659668 58.48168945 C71.14967651 59.78432739 71.14967651 59.78432739 71.94921875 61.11328125 C72.5426709 62.10255615 73.13612305 63.09183105 73.74755859 64.11108398 C74.38773926 65.16755127 75.02791992 66.22401855 75.6875 67.3125 C76.35088379 68.40957275 77.01426758 69.50664551 77.69775391 70.63696289 C79.44461722 73.51869039 81.19618727 76.39744107 82.95025635 79.27478027 C83.9797231 80.96667557 85.00431633 82.66153319 86.02880859 84.35644531 C87.96602793 87.55731745 89.91818047 90.74858096 91.875 93.9375 C92.45596436 94.90018799 93.03692871 95.86287598 93.63549805 96.85473633 C98.80508953 105.20639977 105.07286257 112.07286257 112 119 C96.82 119 81.64 119 66 119 C66.66 116.36 67.32 113.72 68 111 C67.81249128 96.81965308 54.17307803 81.45172818 47 70 C33.04524871 87.63655298 33.04524871 87.63655298 29 109 C29.99 112.3 30.98 115.6 32 119 C20.12 119 8.24 119 -4 119 C-0.07094372 115.07094372 3.89012679 111.45773978 8.109375 107.8671875 C16.7086617 99.74764882 23.27593171 89.58433628 29.76098633 79.77294922 C31.20695887 77.59570013 32.67839123 75.43705465 34.15039062 73.27734375 C35.07452354 71.88648299 35.99710993 70.49459313 36.91796875 69.1015625 C37.3594072 68.46191559 37.80084564 67.82226868 38.25566101 67.16323853 C40.60903621 63.57375726 40.60903621 63.57375726 40.47558594 59.43212891 C39.98864258 58.62952637 39.50169922 57.82692383 39 57 C38.46769775 56.05350586 37.93539551 55.10701172 37.38696289 54.13183594 C36.7552417 53.09317383 36.12352051 52.05451172 35.47265625 50.984375 C35.127686 50.41544525 34.78271576 49.8465155 34.42729187 49.26034546 C33.3099455 47.42093556 32.18667091 45.58524575 31.0625 43.75 C30.68105835 43.12494568 30.2996167 42.49989136 29.90661621 41.855896 C25.25636619 34.23588831 20.57668849 26.63490377 15.75 19.125 C15.33371338 18.47370117 14.91742676 17.82240234 14.48852539 17.15136719 C9.59579445 9.46736165 9.59579445 9.46736165 2.6875 3.75 C1.800625 3.1725 0.91375 2.595 0 2 C0 1.34 0 0.68 0 0 Z " fill="#B89A5A" transform="translate(995,644)"/>
<path d="M0 0 C0.50244141 2.00610352 0.50244141 2.00610352 0.8515625 4.62890625 C0.98046875 5.58216797 1.109375 6.53542969 1.2421875 7.51757812 C1.36851563 8.52240234 1.49484375 9.52722656 1.625 10.5625 C1.82609375 12.02913086 1.82609375 12.02913086 2.03125 13.52539062 C2.75883102 19.06762771 3.14618424 24.41177525 3 30 C0.73828125 29.84765625 0.73828125 29.84765625 -2 29 C-3.95703125 26.55859375 -3.95703125 26.55859375 -5.8125 23.4375 C-11.46330812 14.52130933 -17.60095024 7.43949009 -28.00390625 4.41796875 C-34.2711896 3.10564132 -41.503347 3.4950492 -47 7 C-49.87506349 11.1576517 -50.36733074 15.63922598 -49.625 20.5625 C-46.83840431 29.91055646 -39.64440565 34.15592116 -31.54394531 38.57202148 C-27.89315229 40.51708195 -24.21352007 42.4044741 -20.53125 44.2890625 C-8.1305249 50.66361173 4.23315047 57.41786057 9.875 70.9375 C12.80501929 81.13961535 12.27193431 92.89067865 7.6015625 102.4140625 C1.49631709 112.2718002 -7.56884392 116.95905008 -18.67041016 119.60302734 C-23.39959496 120.40890185 -28.15136608 120.38156034 -32.9375 120.375 C-34.03545898 120.37483887 -35.13341797 120.37467773 -36.26464844 120.37451172 C-45.60524241 120.24481917 -54.123308 118.85471081 -63 116 C-63.95003906 115.71898437 -64.90007812 115.43796875 -65.87890625 115.1484375 C-68 114 -68 114 -68.85546875 112.03125 C-68.96503906 111.1959375 -69.07460937 110.360625 -69.1875 109.5 C-69.32285156 108.52804687 -69.45820312 107.55609375 -69.59765625 106.5546875 C-69.73042969 105.38164063 -69.86320312 104.20859375 -70 103 C-70.18582178 101.48172475 -70.37204498 99.9634986 -70.55859375 98.4453125 C-72.14286764 85.1228252 -72.14286764 85.1228252 -72 80 C-70.02 79.505 -70.02 79.505 -68 79 C-67.5153125 79.75023437 -67.030625 80.50046875 -66.53125 81.2734375 C-57.72085377 94.72623482 -49.52011031 107.13711134 -33.375 111.75 C-26.70481369 112.45212487 -21.0614713 111.96025343 -15 109 C-10.7869445 104.7869445 -8.7070484 100.70199285 -8.5625 94.75 C-8.72212277 87.25770644 -11.60315643 83.35362725 -16.81640625 78.234375 C-22.2110936 73.70402592 -28.637553 70.7525642 -34.875 67.5625 C-47.50573643 61.10183704 -59.66591353 54.42355276 -66.875 41.6875 C-69.68188302 32.48716122 -69.92924497 22.72072736 -66.03125 13.77734375 C-61.06123522 5.0630273 -53.53265466 -0.22088751 -44 -3 C-30.91459502 -5.9339473 -12.22366116 -6.11183058 0 0 Z " fill="#B89A5A" transform="translate(1644,645)"/>
<path d="M0 0 C2.31937073 10.53586493 3.07090594 21.27359414 4 32 C2.35 32.33 0.7 32.66 -1 33 C-1.6290625 32.16597656 -2.258125 31.33195313 -2.90625 30.47265625 C-17.29361567 11.11371783 -17.29361567 11.11371783 -39 2 C-49.48421076 0.91720446 -58.62739076 3.59909738 -67 10 C-79.03018134 21.76751362 -80.89524555 40.35135788 -81.1875 56.25 C-81.02371149 71.59152359 -78.6456687 87.56041348 -69 100 C-61.6964727 107.03578088 -52.76158791 110.42911818 -42.66015625 110.27734375 C-31.10676355 109.07280501 -22.62460058 104.59905778 -15.34399414 95.74658203 C-9.26952532 88.06004709 -4.58669319 79.6305169 0 71 C1.98 71.495 1.98 71.495 4 72 C4.13539497 79.64551755 3.81193519 87.19746187 3.125 94.8125 C3.03605469 96.47055664 3.03605469 96.47055664 2.9453125 98.16210938 C2.18933729 105.98172794 2.18933729 105.98172794 -1.07421875 108.77587891 C-3.67734766 110.12092881 -6.2123427 111.10332991 -9 112 C-9.7326709 112.26981689 -10.4653418 112.53963379 -11.22021484 112.81762695 C-13.21555855 113.52902486 -15.21819095 114.1517005 -17.25 114.75 C-17.91773438 114.95753906 -18.58546875 115.16507813 -19.2734375 115.37890625 C-35.4284295 120.28875676 -55.21915547 120.12419636 -71 114 C-72.03898437 113.59910156 -73.07796875 113.19820312 -74.1484375 112.78515625 C-88.21917131 106.5455635 -99.02943653 94.71930566 -104.8125 80.5625 C-110.93416919 63.36544247 -110.74250581 45.43422345 -102.875 28.75 C-93.90664513 12.12664768 -80.45536656 1.5694715 -62.625 -4.3125 C-42.34851863 -9.38677713 -19.58818072 -6.63926318 0 0 Z " fill="#B89A5A" transform="translate(1546,647)"/>
<path d="M0 0 C33.33 0 66.66 0 101 0 C102.41727854 4.96047487 103.49399832 9.42246303 104.2890625 14.46484375 C104.39721283 15.14301651 104.50536316 15.82118927 104.61679077 16.51991272 C104.95689835 18.65849225 105.29104991 20.79795124 105.625 22.9375 C105.85637545 24.39915119 106.0881427 25.8607404 106.3203125 27.32226562 C106.88473494 30.88080612 107.44382467 34.44016008 108 38 C106.68 38.33 105.36 38.66 104 39 C98.88889772 32.70512743 93.95826799 26.31031577 89.17578125 19.76171875 C84.83104225 14.24694231 80.09467873 8.50085126 72.81445312 7.61035156 C71.64849609 7.5378418 70.48253906 7.46533203 69.28125 7.390625 C67.5187793 7.27509277 67.5187793 7.27509277 65.72070312 7.15722656 C64.82287109 7.1053418 63.92503906 7.05345703 63 7 C63.06141781 18.7882131 63.13867175 30.57620858 63.23571491 42.36418533 C63.28029564 47.83880367 63.3195785 53.31334969 63.34643555 58.78808594 C63.37259164 64.07911833 63.41307996 69.36987059 63.46318626 74.66072845 C63.47977214 76.67152145 63.49133764 78.68236281 63.49761391 80.69321442 C63.54572282 94.69974152 65.03568606 105.76182948 70 119 C57.13 119 44.26 119 31 119 C32.65 114.38 34.3 109.76 36 105 C36.86818302 99.85387487 36.86818302 99.85387487 37.15821838 94.78579712 C37.17290161 93.61227188 37.17290161 93.61227188 37.18788147 92.41503906 C37.19363693 91.57634277 37.1993924 90.73764648 37.20532227 89.87353516 C37.21522186 88.97533051 37.22512146 88.07712585 37.23532104 87.15170288 C37.26678313 84.19751578 37.29163275 81.24331262 37.31640625 78.2890625 C37.33698899 76.23497105 37.35798581 74.18088371 37.37937927 72.12680054 C37.43446358 66.73133685 37.48393282 61.33583579 37.53222656 55.94030762 C37.58254141 50.4302235 37.63817528 44.92019337 37.69335938 39.41015625 C37.80077401 28.60681699 37.90225581 17.80343078 38 7 C35.90312756 7.12436208 33.8068726 7.25916794 31.7109375 7.3984375 C29.95982666 7.50937744 29.95982666 7.50937744 28.17333984 7.62255859 C20.53474865 8.53110314 14.83470773 15.4388251 10.22998047 21.22363281 C8.49675895 23.5657178 6.80249856 25.93021906 5.125 28.3125 C4.54492188 29.12267578 3.96484375 29.93285156 3.3671875 30.76757812 C0.46444198 34.74961948 0.46444198 34.74961948 -2 39 C-3.65 38.34 -5.3 37.68 -7 37 C-6.16788866 32.05138713 -5.33161832 27.10350222 -4.49145508 22.15625 C-4.2061248 20.47252531 -3.92193981 18.78860612 -3.63891602 17.10449219 C-3.23232871 14.68633018 -2.82165197 12.26889344 -2.41015625 9.8515625 C-2.22103416 8.71867294 -2.22103416 8.71867294 -2.02809143 7.56289673 C-1.11387171 2.22774341 -1.11387171 2.22774341 0 0 Z " fill="#B89A5A" transform="translate(1256,644)"/>
<path d="M0 0 C12.87 0 25.74 0 39 0 C37.35 4.62 35.7 9.24 34 14 C33.12274079 18.38629604 32.83959871 22.35170539 32.82299805 26.78100586 C32.81642685 27.54928711 32.80985565 28.31756836 32.80308533 29.10913086 C32.7834268 31.64436968 32.77170198 34.17954925 32.76171875 36.71484375 C32.75764322 37.58642183 32.7535677 38.45799992 32.74936867 39.35598946 C32.72853251 43.97568649 32.71422417 48.59535409 32.70483398 53.21508789 C32.69381731 57.95225821 32.65946563 62.68895263 32.61966228 67.42595577 C32.59332031 71.09720134 32.58512635 74.76833693 32.58155251 78.43966866 C32.57672623 80.18372345 32.56522758 81.92777468 32.54651451 83.67173576 C32.41651575 96.59763872 34.15045153 106.87612881 39 119 C26.13 119 13.26 119 0 119 C3 110 3 110 4.125 106.875 C5.86987517 101.14183874 6.12760311 95.44051544 6.14526367 89.47924805 C6.14862228 88.762771 6.1519809 88.04629395 6.15544128 87.30810547 C6.16487446 84.95929184 6.16689055 82.61055009 6.16796875 80.26171875 C6.17118673 78.61416089 6.1745512 76.9666033 6.17805481 75.31904602 C6.18402707 71.87195168 6.18589668 68.42488235 6.18530273 64.9777832 C6.18520124 60.5834506 6.19884849 56.18928004 6.21607494 51.79498577 C6.22725079 48.39326761 6.22922023 44.99158792 6.22869301 41.58985329 C6.22986491 39.97090917 6.23424176 38.35196378 6.24202538 36.73303795 C6.28767455 26.25774953 6.15412827 16.26275191 1.875 6.5 C0 2.17518248 0 2.17518248 0 0 Z " fill="#B89A5A" transform="translate(1381,644)"/>
</svg>
