<?xml version="1.0" encoding="UTF-8"?>
<svg version="1.1" xmlns="http://www.w3.org/2000/svg" width="639" height="722">
<path d="M0 0 C25.08 0 50.16 0 76 0 C80.21624691 9.03481481 84.35574305 18.00009195 88.1875 27.1875 C89.15436739 29.48852527 90.12183391 31.78929886 91.08984375 34.08984375 C91.57694824 35.2485498 92.06405273 36.40725586 92.56591797 37.60107422 C94.77096904 42.827278 97.01001488 48.03869581 99.25 53.25 C105.38131567 67.53009308 111.47226166 81.8273496 117.5625 96.125 C118.28681213 97.82493103 118.28681213 97.82493103 119.02575684 99.5592041 C124.29040886 111.91578615 129.54399869 124.27690771 134.7734375 136.6484375 C138.56341511 145.61404106 142.36915813 154.57245174 146.21047974 163.51617432 C147.12006583 165.63403504 148.02873754 167.75228648 148.93725586 169.87060547 C150.95750147 174.58069087 152.97873923 179.29035018 155 184 C158.0217895 191.0412567 161.04280071 198.08284662 164.0625 205.125 C164.63307632 206.45558441 164.63307632 206.45558441 165.21517944 207.81304932 C170.29290844 219.65672238 175.34871437 231.50940603 180.375 243.375 C188.86984667 263.42763497 197.44918478 283.44291956 206.11886597 303.42062378 C215.0519006 324.00921537 223.90446417 344.63296913 232.625 365.3125 C236.53626252 374.58302126 240.49989707 383.83004566 244.5 393.0625 C245.22823975 394.74436401 245.22823975 394.74436401 245.97119141 396.46020508 C248.44605012 402.16157914 250.93452135 407.85649212 253.44677734 413.54150391 C260.30094414 429.05755471 266.99715446 444.63607016 273.625 460.25 C275.09338199 463.70541713 276.56221537 467.16064206 278.03117371 470.61581421 C278.98770306 472.86574089 279.94401535 475.11575986 280.90010071 477.36587524 C283.88483405 484.38773091 286.88441042 491.40305671 289.89453125 498.4140625 C292.99266977 505.63378754 296.07248503 512.85964487 299.0625 520.125 C299.64547852 521.51912109 299.64547852 521.51912109 300.24023438 522.94140625 C300.7884082 524.27365234 300.7884082 524.27365234 301.34765625 525.6328125 C301.66742432 526.40512207 301.98719238 527.17743164 302.31665039 527.97314453 C303 530 303 530 303 533 C293.19504136 533.49135416 283.39310161 533.86198359 273.57824421 534.08805561 C269.01748477 534.19670421 264.46526355 534.34330512 259.90942383 534.58422852 C226.83362136 536.28786404 226.83362136 536.28786404 216.56426907 527.13023281 C212.59377667 523.27502224 209.22913827 518.96609289 205.96484375 514.51170349 C203.06399356 510.80348214 199.62186073 507.97049909 196 505 C194.75433424 503.85442636 193.51624046 502.70051302 192.2890625 501.53515625 C191.68924561 500.96692139 191.08942871 500.39868652 190.47143555 499.81323242 C189.86211182 499.23549072 189.25278809 498.65774902 188.625 498.0625 C183.68601877 493.41249846 178.67401939 489.00217513 173.30859375 484.84375 C170.85656785 482.88544844 168.55851105 480.81267711 166.25 478.6875 C161.85503883 474.68274566 157.27898391 471.00130987 152.58374023 467.36132812 C148.76706447 464.39964884 145.00797075 461.38047419 141.28027344 458.30761719 C132.53991765 451.11146322 123.52011567 444.35686824 114.35400391 437.71435547 C112.10364796 436.07548392 109.8684737 434.41798288 107.63671875 432.75390625 C89.51235637 419.32176272 70.07186585 407.87352797 50.60205078 396.52001953 C48.05168166 395.03019047 45.50779409 393.52979236 42.96484375 392.02734375 C33.89948723 386.69259409 24.76367377 381.67183012 15.28564453 377.11035156 C12.76139922 375.88408926 10.25426079 374.62599492 7.74609375 373.3671875 C-4.99687427 367.03869596 -17.9463595 361.40844166 -31.125 356.0625 C-31.90306 355.74562225 -32.68112 355.42874451 -33.48275757 355.1022644 C-49.33449908 347.63103706 -49.33449908 347.63103706 -66 344 C-74.5278677 363.92544573 -82.99871322 383.86993944 -91.1875 403.9375 C-97.00547572 418.19395202 -102.94586239 432.39231832 -108.98294067 446.55725098 C-109.26056244 447.20867065 -109.5381842 447.86009033 -109.82421875 448.53125 C-110.0970871 449.17139038 -110.36995544 449.81153076 -110.65109253 450.47106934 C-113.19555032 456.44651068 -115.69733174 462.43927358 -118.1875 468.4375 C-121.59255335 476.63894122 -125.0334629 484.8243529 -128.5 493 C-131.86046214 500.92643999 -135.19917036 508.86104856 -138.5 516.8125 C-143.34529077 528.47972739 -148.26768365 540.11405804 -153.1875 551.75 C-159.36162274 566.35357496 -165.50640835 580.96854962 -171.59020996 595.60998535 C-175.1068768 604.07314117 -178.63836278 612.52962733 -182.203125 620.97265625 C-182.55518005 621.8065387 -182.90723511 622.64042114 -183.2699585 623.49957275 C-184.6689183 626.81259423 -186.06805153 630.12554231 -187.46765137 633.43829346 C-191.71443637 643.49526851 -195.91644336 653.5643599 -199.88256836 663.73632812 C-201.90510899 668.90510899 -201.90510899 668.90510899 -203 670 C-205.52541002 670.09504251 -208.02337126 670.12557158 -210.54907227 670.11352539 C-211.73435013 670.11374443 -211.73435013 670.11374443 -212.943573 670.1139679 C-215.56787822 670.11326857 -218.19211336 670.10547527 -220.81640625 670.09765625 C-222.63101665 670.09579214 -224.44562756 670.0943682 -226.26023865 670.09336853 C-231.0459023 670.08954279 -235.8315358 670.07971204 -240.6171875 670.06866455 C-245.49674064 670.05845163 -250.37629864 670.05387117 -255.25585938 670.04882812 C-264.83725286 670.03808982 -274.41862393 670.02101273 -284 670 C-273.44066844 643.43126533 -273.44066844 643.43126533 -268.4375 631.9375 C-267.41728118 629.57451549 -266.3977953 627.21121444 -265.37890625 624.84765625 C-264.97895447 623.92104187 -264.97895447 623.92104187 -264.57092285 622.97570801 C-261.33257444 615.46665339 -258.14329739 607.93676386 -254.94976807 600.40856934 C-250.16736355 589.13492453 -245.37829348 577.86434968 -240.54296875 566.61328125 C-240.17408035 565.75488647 -239.80519196 564.8964917 -239.42512512 564.01208496 C-238.67822594 562.27418886 -237.93132347 560.53629416 -237.18441772 558.79840088 C-229.84477085 541.71774509 -222.60598828 524.59724834 -215.45141602 507.43823242 C-205.93598679 484.61883642 -196.25387469 461.87011248 -186.5625 439.125 C-186.05910095 437.94323181 -185.5557019 436.76146362 -185.03704834 435.54388428 C-179.57944428 422.73196697 -174.11892918 409.92138814 -168.625 397.125 C-158.32229926 373.12351615 -148.12399699 349.07736704 -138 325 C-132.60812965 312.17690303 -127.19325557 299.36387351 -121.75 286.5625 C-121.4031012 285.74656372 -121.05620239 284.93062744 -120.6987915 284.08996582 C-116.89820742 275.15182723 -113.09263957 266.21582141 -109.28242493 257.28178406 C-107.1457588 252.27155484 -105.01008193 247.2609045 -102.875 242.25 C-102.45115021 241.25529694 -102.02730042 240.26059387 -101.59060669 239.23574829 C-95.75351367 225.53148117 -89.98044451 211.80245062 -84.27227783 198.04403687 C-79.53806254 186.63726615 -74.71239185 175.27270406 -69.83166504 163.92791748 C-64.31346802 151.09936636 -58.86324571 138.24291239 -53.4375 125.375 C-53.03283508 124.4152829 -52.62817017 123.4555658 -52.21124268 122.46676636 C-51.80847107 121.51150055 -51.40569946 120.55623474 -50.99072266 119.57202148 C-50.18783376 117.66780251 -49.38493671 115.76358698 -48.58203125 113.859375 C-48.19007568 112.92972427 -47.79812012 112.00007355 -47.39428711 111.04225159 C-43.81851237 102.56388029 -40.22368885 94.0936641 -36.625 85.625 C-32.22188443 75.26167124 -27.84812742 64.88651606 -23.5 54.5 C-19.11974482 44.0398927 -14.72709126 33.5851056 -10.30737305 23.14160156 C-9.69259216 21.68827821 -9.07848162 20.23467108 -8.46508789 18.78076172 C-7.61146411 16.75796772 -6.75528935 14.73627208 -5.8984375 12.71484375 C-5.41036621 11.56105225 -4.92229492 10.40726074 -4.41943359 9.21850586 C-3.04434756 6.10055623 -1.5239732 3.04794639 0 0 Z M36 101 C34.145012 105.41632205 32.29105992 109.83307843 30.4375 114.25 C30.14889099 114.93759399 29.86028198 115.62518799 29.56292725 116.33361816 C26.13655218 124.49808798 22.71899917 132.66608731 19.32421875 140.84375 C12.77801693 156.60854951 6.16841211 172.34189635 -0.57574463 188.02313232 C-5.37076084 199.17343555 -10.10611315 210.34619199 -14.78320312 221.54663086 C-18.14042096 229.58343978 -21.52614587 237.60768848 -24.9296875 245.625 C-25.79660851 247.66940856 -26.6634703 249.71384224 -27.53027344 251.75830078 C-28.81740704 254.79411954 -30.10560577 257.82945937 -31.39758301 260.86322021 C-32.60408858 263.69657265 -33.80631794 266.5317072 -35.0078125 269.3671875 C-35.54606155 270.62631958 -35.54606155 270.62631958 -36.09518433 271.91088867 C-38.32994916 277.19836366 -40.26794583 282.52720063 -42 288 C-41.30994873 288.28480225 -40.61989746 288.56960449 -39.90893555 288.86303711 C-3.31586491 304.03091469 33.08770629 320.28521132 67.02587891 340.81591797 C69.02087884 342.01252317 71.02879743 343.18364415 73.04296875 344.34765625 C90.17965522 354.26216336 106.85528998 364.88213835 122.89941406 376.48486328 C125.10001063 378.07213691 127.31085205 379.64433267 129.5234375 381.21484375 C138.72729787 387.77145952 147.65144546 394.58867548 156.41796875 401.71777344 C161.7842855 406.06714004 167.18288431 410.27107968 173 414 C171.09897127 408.00070089 168.91847031 402.22317329 166.375 396.46875 C165.86007492 395.29103279 165.86007492 395.29103279 165.33474731 394.08952332 C164.22685006 391.55804872 163.11346311 389.02903071 162 386.5 C161.22734858 384.73688978 160.45505318 382.97362351 159.68310547 381.21020508 C155.94906892 372.68601554 152.19458094 364.1708752 148.43603516 355.6574707 C148.00339355 354.67738037 147.57075195 353.69729004 147.125 352.6875 C146.69364746 351.71063232 146.26229492 350.73376465 145.81787109 349.72729492 C142.21494089 341.54310564 138.72976942 333.31132737 135.25976562 325.07006836 C130.42334906 313.59722195 125.46559902 302.17766065 120.50239563 290.75930786 C118.54396729 286.25368352 116.58916769 281.74649975 114.63671875 277.23828125 C114.35727417 276.59307526 114.07782959 275.94786926 113.78991699 275.28311157 C112.96407722 273.37625582 112.13828072 271.46938133 111.3125 269.5625 C105.88775852 257.0361152 100.44441393 244.51784396 95 232 C94.17797688 230.10994537 93.35595537 228.21989005 92.53393555 226.32983398 C92.13260406 225.40706161 91.73127258 224.48428925 91.31777954 223.53355408 C80.70735814 199.13706357 70.1038748 174.73767017 59.54309082 150.31964111 C52.4209185 133.85358219 45.24928982 117.41057707 38 101 C37.34 101 36.68 101 36 101 Z " fill="#B79959" transform="translate(309,23)"/>
</svg>
